<svg xmlns="http://www.w3.org/2000/svg" width="50" height="63" viewBox="0 0 50 63" fill="none"><g clip-path="url(#clip0_2700_7635)"><path d="M30.5177 18.4152C27.4234 22.2083 23.0691 26.4875 17.1245 30.0329C16.0478 30.6767 14.984 31.2545 13.944 31.7754C12.7298 32.3844 11.5467 32.9145 10.4077 33.3785L10.4572 33.4977C10.4902 33.7032 11.0937 37.0579 13.7918 38.008C14.5841 38.2886 15.3325 38.2813 15.8974 38.2024C16.3835 39.1819 16.9796 40.1742 17.7133 41.1463C18.7422 42.5109 20.2261 44.4277 22.616 45.5667C22.8618 46.2233 23.0966 46.9992 23.2708 47.8796C23.4102 48.5913 23.4873 49.2607 23.5221 49.8752C23.247 49.9247 22.8288 50.0403 22.4235 50.3392C21.8182 50.7886 21.4587 51.4343 21.3119 51.9772C20.6076 52.1404 19.9051 52.3018 19.2008 52.4632C18.8505 52.5439 18.5075 52.6503 18.1773 52.7805C17.5262 52.9199 12.7114 54.0608 8.62669 50.2989C4.76389 46.7424 3.91833 40.3613 6.99243 35.066C5.98362 35.2035 4.52911 35.2255 3.33139 34.413C-0.0783665 32.0982 0.187591 24.0865 4.11459 19.5065C6.40549 16.8378 9.43373 15.9244 10.98 15.5851C12.0493 12.5623 14.5126 7.18997 20.0023 3.55461C22.3464 2.00289 27.1226 -1.16108 31.1157 0.808835C33.0856 1.78095 34.8482 3.99482 35.1032 6.69291C35.3655 9.45703 33.9275 11.4746 33.535 11.9882C37.2419 9.51206 39.3145 9.59093 40.5306 10.1577C43.3864 11.4893 42.2547 15.8583 45.4994 23.1676C48.0746 28.9728 48.6157 29.1654 49.2466 32.8429C50.4939 40.1026 45.6938 45.9042 44.5181 47.0964C40.7617 50.9042 36.8218 52.067 34.4979 52.6411C34.2888 52.5733 34.0742 52.5128 33.8578 52.4632C33.1535 52.3018 32.4491 52.1404 31.7466 51.9772C31.6017 51.4343 31.2404 50.7886 30.6351 50.3392C30.2298 50.0403 29.619 49.9247 29.342 49.8752C29.3732 49.2259 29.4502 48.5106 29.6006 47.7494C29.7675 46.902 29.9931 46.1555 30.2261 45.5153C32.7022 44.2956 34.1934 42.2872 35.0427 41.1463C35.6718 40.2989 36.2349 39.2901 36.7136 38.1419L36.8585 38.2024C37.3684 38.2758 38.1443 38.3143 38.966 38.008C42.1501 36.8249 43.5588 31.3976 41.9686 29.9027C41.6512 29.6019 40.8057 29.0792 38.4854 29.8018C38.6065 27.6907 38.5368 25.42 38.2415 23.041C37.2107 22.7732 36.0496 22.3624 34.8427 21.7296C32.9278 20.7281 31.5119 19.49 30.5177 18.4152Z" fill="#001BE9"></path><path d="M41.9686 29.9028C43.5588 31.3976 42.1502 36.825 38.966 38.008C38.1443 38.3144 37.3684 38.2758 36.8585 38.2025L36.7136 38.1419C37.6711 35.8547 38.3002 33.0136 38.4854 29.8019C40.8057 29.0792 41.6513 29.602 41.9686 29.9028Z" fill="#FAC37F"></path><path d="M40.9598 3.96549C41.3193 4.28647 40.8956 5.4255 40.3912 6.16101C39.3072 7.74025 37.1098 8.54179 36.6953 8.06123C36.3028 7.60452 37.4069 5.89322 38.6652 4.89175C39.3218 4.36901 40.5617 3.61149 40.9598 3.96549Z" fill="#001BE9"></path><path d="M18.1773 52.7805C18.5074 52.6503 18.8504 52.5439 19.2008 52.4632C19.9051 52.3018 20.6076 52.1404 21.3119 51.9772C21.2275 52.2945 21.2147 52.5788 21.2697 52.7677C21.6109 53.9287 21.9502 55.088 22.2895 56.249C22.9095 54.3635 24.1292 53.118 25.3306 53.1437C25.5672 53.1492 25.8772 53.2042 26.2349 53.406C26.2165 53.373 26.1964 53.3381 26.1744 53.2996C26.2074 53.3345 26.2459 53.3785 26.2862 53.4317L26.8218 53.406C27.1813 53.2042 27.4913 53.1492 27.7279 53.1437C28.9275 53.118 30.149 54.3635 30.7672 56.249C31.1083 55.088 31.4476 53.9287 31.787 52.7677C31.842 52.5788 31.831 52.2963 31.7466 51.9772C32.4491 52.1404 33.1534 52.3018 33.8578 52.4632C34.0742 52.5128 34.2888 52.5733 34.4979 52.6411C36.3009 53.2373 37.8031 54.5304 38.6578 56.2472C39.2191 57.3807 39.7822 58.5124 40.3435 59.6459C36.2184 60.9885 30.3013 62.267 23.2543 61.7406C19.1109 61.4306 15.5544 60.5703 12.7188 59.6312C13.28 58.5032 13.8394 57.3752 14.4007 56.2472C15.1931 54.6533 16.5449 53.4243 18.1773 52.7805ZM25.1509 55.2842C25.1509 55.1943 25.0775 55.121 24.9876 55.121C24.8978 55.121 24.8226 55.1943 24.8226 55.2842C24.8226 55.3741 24.8959 55.4475 24.9876 55.4475C25.0793 55.4475 25.1509 55.3741 25.1509 55.2842ZM24.9876 57.4412C24.9876 57.3513 24.9143 57.278 24.8226 57.278C24.7308 57.278 24.6593 57.3513 24.6593 57.4412C24.6593 57.5311 24.7327 57.6045 24.8226 57.6045C24.9124 57.6045 24.9876 57.5329 24.9876 57.4412Z" fill="#16F9B9"></path><path d="M29.8445 39.5633C29.4979 38.7196 27.5041 38.1804 26.6054 38.1804C25.7066 38.1804 23.7129 38.7196 23.3662 39.5633C23.3332 39.6441 23.3148 39.7284 23.3148 39.8165C23.3148 40.8033 25.6186 41.4544 26.6054 41.4544C27.5922 41.4544 29.8959 40.8033 29.8959 39.8165C29.8959 39.7284 29.8776 39.6441 29.8445 39.5633ZM30.2261 45.5153C29.7547 45.7482 29.2466 45.9518 28.7018 46.1151C27.8471 46.3718 27.1079 46.4672 26.6054 46.5076H26.6035C25.9707 46.4929 25.0757 46.4122 24.054 46.1151C23.5404 45.9647 23.0617 45.7794 22.616 45.5666C20.2261 44.4276 18.7422 42.5109 17.7132 41.1462C16.9796 40.1741 16.3834 39.1818 15.8974 38.2024C14.7107 35.8161 14.1842 33.5087 13.944 31.7754C14.984 31.2545 16.0478 30.6767 17.1245 30.0329C23.0691 26.4874 27.4234 22.2083 30.5177 18.4152C31.5118 19.49 32.9278 20.7281 34.8427 21.7295C36.0496 22.3623 37.2106 22.7732 38.2415 23.041C38.5368 25.4199 38.6065 27.6906 38.4854 29.8018C38.3002 33.0135 37.671 35.8546 36.7136 38.1418C36.2349 39.2901 35.6718 40.2989 35.0426 41.1462C34.1934 42.2871 32.7022 44.2956 30.2261 45.5153ZM34.9619 25.6895C35.1398 25.2383 33.8211 24.0333 32.3666 23.859C31.6897 23.7765 30.7671 23.892 30.6791 24.2497C30.5801 24.6441 31.532 25.2163 32.1171 25.4749C33.2415 25.9738 34.7913 26.1151 34.9619 25.6895ZM33.9238 31.6158C33.9238 30.6052 33.1039 29.7853 32.0933 29.7853C31.0826 29.7853 30.2627 30.6052 30.2627 31.6158C30.2627 32.6264 31.0826 33.4463 32.0933 33.4463C33.1039 33.4463 33.9238 32.6264 33.9238 31.6158ZM28.4671 35.3961C28.4671 34.534 27.6325 32.3 26.6035 32.3C25.5746 32.3 24.7418 34.534 24.7418 35.3961C24.7418 36.2581 25.5764 36.57 26.6035 36.57C27.6307 36.57 28.4671 36.2581 28.4671 35.3961ZM22.9352 31.6158C22.9352 30.6052 22.1153 29.7853 21.1046 29.7853C20.094 29.7853 19.2741 30.6052 19.2741 31.6158C19.2741 32.6264 20.094 33.4463 21.1046 33.4463C22.1153 33.4463 22.9352 32.6264 22.9352 31.6158Z" fill="#FAC37F"></path><path d="M32.3666 26.0253C33.8211 26.1995 35.1399 27.4046 34.962 27.8558C34.7914 28.2813 33.2415 28.1401 32.1172 27.6412C31.5321 27.3826 30.5801 26.8103 30.6792 26.416C30.7672 26.0583 31.6898 25.9427 32.3666 26.0253Z" fill="#001BE9"></path><path d="M21.6115 26.0253C20.157 26.1995 18.8383 27.4046 19.0162 27.8558C19.1867 28.2813 20.7366 28.1401 21.861 27.6412C22.4461 27.3826 23.398 26.8103 23.299 26.416C23.211 26.0583 22.2884 25.9427 21.6115 26.0253Z" fill="#001BE9"></path><path d="M32.0933 33.4463C33.1042 33.4463 33.9238 32.6268 33.9238 31.6158C33.9238 30.6048 33.1042 29.7853 32.0933 29.7853C31.0823 29.7853 30.2628 30.6048 30.2628 31.6158C30.2628 32.6268 31.0823 33.4463 32.0933 33.4463Z" fill="#1D1D1B"></path><path d="M29.3769 51.5187L29.3402 51.3444C29.3182 50.9042 29.3145 50.4127 29.342 49.8752C29.619 49.9248 30.2298 50.0403 30.6351 50.3393C31.2404 50.7887 31.6017 51.4343 31.7466 51.9772C31.831 52.2964 31.842 52.5788 31.787 52.7678C31.4477 53.9288 31.1083 55.088 30.7672 56.249C30.1491 54.3635 28.9275 53.1181 27.7279 53.1438C27.4913 53.1493 27.1813 53.2043 26.8218 53.4061C26.9943 53.0924 27.3923 52.4688 28.1535 51.9992C28.579 51.7369 29.0027 51.5939 29.3769 51.5187Z" fill="#212236"></path><path d="M29.8446 39.5634C29.8776 39.6441 29.8959 39.7284 29.8959 39.8165C29.8959 40.8033 27.5922 41.4544 26.6054 41.4544C25.6186 41.4544 23.3149 40.8033 23.3149 39.8165C23.3149 39.7284 23.3332 39.6441 23.3662 39.5634C24.2907 39.6973 25.338 39.7908 26.488 39.7963C27.7316 39.8018 28.8578 39.7046 29.8446 39.5634Z" fill="#FF916A"></path><path d="M29.342 49.8752C29.3145 50.4127 29.3182 50.9042 29.3402 51.3444L29.3768 51.5187C29.0027 51.5939 28.579 51.7369 28.1534 51.9992C27.3923 52.4688 26.9942 53.0924 26.8218 53.4061L26.2862 53.4317C26.2459 53.3785 26.2074 53.3345 26.1744 53.2997C25.9763 52.9659 25.5874 52.4211 24.9051 51.9992C24.4209 51.7003 23.9385 51.5572 23.5313 51.4912V51.4765C23.5551 51.0014 23.5588 50.464 23.5221 49.8752C23.4873 49.2608 23.4102 48.5913 23.2708 47.8797C23.0966 46.9992 22.8618 46.2234 22.616 45.5667C23.0617 45.7795 23.5405 45.9648 24.054 46.1152C25.0757 46.4123 25.9708 46.493 26.6036 46.5077H26.6054C27.108 46.4673 27.8471 46.3719 28.7019 46.1152C29.2466 45.9519 29.7547 45.7483 30.2261 45.5154C29.9931 46.1555 29.7675 46.902 29.6006 47.7494C29.4502 48.5106 29.3732 49.2259 29.342 49.8752Z" fill="#FAC37F"></path><path d="M26.6054 38.1804C27.5041 38.1804 29.4979 38.7197 29.8446 39.5634C28.8578 39.7046 27.7316 39.8018 26.488 39.7963C25.338 39.7908 24.2906 39.6973 23.3662 39.5634C23.7129 38.7197 25.7066 38.1804 26.6054 38.1804Z" fill="#CB6541"></path><path d="M26.6036 32.3C27.6326 32.3 28.4671 34.5341 28.4671 35.3962C28.4671 36.2582 27.6326 36.57 26.6036 36.57C25.5746 36.57 24.7419 36.2582 24.7419 35.3962C24.7419 34.5341 25.5764 32.3 26.6036 32.3Z" fill="#FF916A"></path><path d="M23.5313 51.4912C23.9385 51.5572 24.4209 51.7003 24.9051 51.9992C25.5874 52.4211 25.9763 52.9658 26.1744 53.2997C26.1964 53.3382 26.2165 53.373 26.2349 53.4061C25.8772 53.2043 25.5672 53.1493 25.3306 53.1438C24.1292 53.1181 22.9095 54.3635 22.2895 56.249C21.9502 55.088 21.6109 53.9288 21.2697 52.7678C21.2147 52.5788 21.2275 52.2945 21.3119 51.9772C21.4587 51.4343 21.8182 50.7887 22.4234 50.3393C22.8288 50.0403 23.247 49.9248 23.5221 49.8752C23.5588 50.464 23.5551 51.0014 23.5331 51.4765V51.4912H23.5313Z" fill="#212236"></path><path d="M21.1047 33.4463C22.1157 33.4463 22.9352 32.6268 22.9352 31.6158C22.9352 30.6048 22.1157 29.7853 21.1047 29.7853C20.0937 29.7853 19.2742 30.6048 19.2742 31.6158C19.2742 32.6268 20.0937 33.4463 21.1047 33.4463Z" fill="#1D1D1B"></path><path d="M15.8974 38.2024C15.3325 38.2813 14.5842 38.2886 13.7918 38.008C11.0937 37.0579 10.4903 33.7031 10.4572 33.4977L10.4077 33.3785C11.5467 32.9144 12.7298 32.3843 13.944 31.7754C14.1843 33.5087 14.7107 35.8161 15.8974 38.2024Z" fill="#FAC37F"></path><path d="M26.6036 46.6911H26.5999C25.7195 46.671 24.8464 46.5371 24.0027 46.2913C23.4964 46.1427 23.0031 45.9556 22.5372 45.7319C20.0463 44.5451 18.4946 42.4872 17.5665 41.2564C16.8714 40.3357 16.2551 39.336 15.7323 38.2832C14.7455 36.3005 14.0834 34.1178 13.7606 31.7994C13.7459 31.6985 13.8174 31.6068 13.9165 31.5921C14.0155 31.5793 14.1091 31.649 14.1237 31.748C14.4392 34.0279 15.0904 36.1702 16.0588 38.1181C16.5706 39.1508 17.1758 40.1321 17.8563 41.0327C18.7642 42.2359 20.2811 44.2498 22.6912 45.398C23.1406 45.6126 23.6138 45.7924 24.1017 45.9354C24.9124 46.1721 25.7543 46.3005 26.6036 46.3206C26.7044 46.3225 26.7851 46.4068 26.7833 46.5077C26.7815 46.6068 26.6989 46.6875 26.5999 46.6875L26.6036 46.6911Z" fill="#9F4B1B"></path><path d="M23.5331 51.6599C23.5331 51.6599 23.5276 51.6599 23.524 51.6599C23.4231 51.6544 23.3442 51.57 23.3497 51.4691C23.3754 50.9262 23.3717 50.409 23.3387 49.8881C23.302 49.2296 23.2177 48.5675 23.0911 47.9163C22.9352 47.1331 22.7188 46.3646 22.4455 45.6328C22.4106 45.5374 22.4583 45.4328 22.5537 45.3962C22.6491 45.3613 22.7536 45.409 22.7903 45.5044C23.0709 46.2546 23.2947 47.0433 23.4524 47.8466C23.5827 48.5143 23.6689 49.1948 23.7074 49.8679C23.7404 50.4017 23.7441 50.9317 23.7184 51.4875C23.7147 51.5865 23.6322 51.6617 23.535 51.6617L23.5331 51.6599Z" fill="#9F4B1B"></path><path d="M29.3383 51.5278C29.2411 51.5278 29.1604 51.4508 29.1549 51.3536C29.1311 50.8675 29.1311 50.3668 29.1568 49.8661C29.1916 49.1416 29.2797 48.4171 29.419 47.7146C29.5676 46.9589 29.7804 46.1995 30.0518 45.453L30.0812 45.3741C30.116 45.2788 30.2206 45.2292 30.316 45.2641C30.4113 45.2989 30.4609 45.4035 30.426 45.4989L30.3967 45.5777C30.127 46.3169 29.9253 47.0396 29.7786 47.7861C29.6428 48.4721 29.5566 49.1782 29.5236 49.8844C29.4979 50.3741 29.4979 50.862 29.5218 51.3353C29.5273 51.4361 29.4484 51.5223 29.3475 51.5278C29.3438 51.5278 29.342 51.5278 29.3383 51.5278Z" fill="#9F4B1B"></path><path d="M26.6054 46.6911C26.51 46.6911 26.4312 46.6178 26.422 46.5224C26.4147 46.4215 26.4899 46.3335 26.5907 46.3243C27.2932 46.2674 27.9866 46.139 28.6487 45.9391C29.1623 45.785 29.6648 45.5869 30.1436 45.3503C32.5739 44.1526 34.0229 42.2084 34.8886 41.0455C35.5196 40.1963 36.0735 39.1985 36.5431 38.0704C37.5152 35.7502 38.1223 32.887 38.3002 29.7909C38.4249 27.6247 38.3424 25.3614 38.0581 23.0631C38.0453 22.9622 38.1168 22.8705 38.2177 22.8577C38.3167 22.8449 38.4103 22.9164 38.4231 23.0173C38.7111 25.3375 38.7936 27.6229 38.6689 29.8111C38.4873 32.9476 37.871 35.8529 36.8824 38.2117C36.4018 39.3654 35.8314 40.3889 35.1894 41.2546C34.298 42.4523 32.816 44.4424 30.3068 45.6787C29.8097 45.9244 29.287 46.1299 28.7551 46.2894C28.0673 46.4967 27.3483 46.6306 26.6201 46.6893C26.6146 46.6893 26.6109 46.6893 26.6054 46.6893V46.6911Z" fill="#9F4B1B"></path><path d="M25.2481 59.3415C25.1875 59.3415 25.127 59.3103 25.0922 59.2553C25.039 59.1691 25.0647 59.0554 25.1509 59.0022C25.5617 58.749 25.8625 58.4317 26.0478 58.0631C26.2129 57.7329 26.2019 57.5348 26.1817 57.1735C26.1652 56.8782 26.1432 56.4728 26.2257 55.8474C26.2605 55.5796 26.3064 55.3466 26.3449 55.1412C26.4476 54.6075 26.5155 54.2535 26.3211 53.8408C26.2734 53.738 26.2129 53.6408 26.1377 53.5436C26.101 53.4959 26.0661 53.4574 26.0368 53.4262C25.9671 53.3529 25.9707 53.2355 26.0441 53.1676C26.1175 53.0979 26.233 53.1016 26.3027 53.175C26.3394 53.2135 26.3816 53.263 26.4275 53.3217C26.5192 53.4409 26.5925 53.5601 26.6512 53.6885C26.8952 54.2094 26.809 54.6533 26.7026 55.2146C26.6641 55.4145 26.62 55.6419 26.587 55.9006C26.5082 56.4912 26.5283 56.8617 26.5448 57.157C26.5669 57.5366 26.5815 57.8118 26.3724 58.23C26.156 58.661 25.8093 59.026 25.3398 59.3158C25.3104 59.3342 25.2756 59.3433 25.2426 59.3433L25.2481 59.3415Z" fill="#1D1D1B"></path><path d="M24.9877 55.6309C24.7951 55.6309 24.6392 55.475 24.6392 55.2843C24.6392 55.0935 24.7951 54.9376 24.9877 54.9376C25.1802 54.9376 25.3343 55.0935 25.3343 55.2843C25.3343 55.475 25.1784 55.6309 24.9877 55.6309ZM24.9877 55.2641C24.9767 55.2641 24.9675 55.2733 24.9675 55.2843C24.9675 55.3063 25.006 55.3081 25.006 55.2843C25.006 55.2733 24.9968 55.2641 24.9877 55.2641Z" fill="#1D1D1B"></path><path d="M24.8226 57.7879C24.6318 57.7879 24.4759 57.632 24.4759 57.4413C24.4759 57.2505 24.6318 57.0946 24.8226 57.0946C25.0133 57.0946 25.171 57.2505 25.171 57.4413C25.171 57.632 25.0151 57.7879 24.8226 57.7879ZM24.8226 57.4211C24.8226 57.4211 24.8042 57.4321 24.8042 57.4413C24.8042 57.4651 24.8427 57.4633 24.8427 57.4413C24.8427 57.4321 24.8336 57.4211 24.8226 57.4211Z" fill="#1D1D1B"></path><path d="M26.6036 36.7535C25.2848 36.7535 24.5585 36.2711 24.5585 35.3962C24.5585 34.4443 25.4444 32.1167 26.6036 32.1167C27.7628 32.1167 28.6505 34.4443 28.6505 35.3962C28.6505 36.2711 27.9242 36.7535 26.6036 36.7535ZM26.6036 32.4835C25.7232 32.4835 24.9253 34.58 24.9253 35.3962C24.9253 36.2124 25.8387 36.3867 26.6036 36.3867C27.3684 36.3867 28.2837 36.2143 28.2837 35.3962C28.2837 34.5782 27.4858 32.4835 26.6036 32.4835Z" fill="#9F4B1B"></path><path d="M26.5871 39.9798C26.5541 39.9798 26.521 39.9798 26.4862 39.9798C25.4407 39.9743 24.3805 39.8954 23.3387 39.745C22.9205 39.6845 22.5133 39.613 22.13 39.5359C22.0309 39.5158 21.9667 39.4186 21.9869 39.3195C22.0071 39.2205 22.1043 39.1563 22.2034 39.1764C22.5794 39.2535 22.9792 39.3213 23.3919 39.3819C24.4172 39.5304 25.459 39.6075 26.488 39.613C27.5904 39.6203 28.7111 39.5396 29.8171 39.3819C30.1967 39.3268 30.5856 39.259 31.0056 39.1764C31.1047 39.1581 31.2019 39.2223 31.2202 39.3213C31.2404 39.4204 31.1744 39.5176 31.0753 39.5378C30.6498 39.6221 30.2554 39.69 29.8684 39.7469C28.7771 39.9028 27.6729 39.9816 26.5852 39.9816L26.5871 39.9798Z" fill="#9F4B1B"></path><rect x="30" y="23" width="5" height="3" fill="#FAC37F"></rect></g><defs><clipPath id="clip0_2700_7635"><rect width="48.8646" height="62.0451" fill="white" transform="translate(0.772705)"></rect></clipPath></defs></svg>